<?xml version="1.0" standalone="no"?>
<!DOCTYPE svg PUBLIC "-//W3C//DTD SVG 20010904//EN"
 "http://www.w3.org/TR/2001/REC-SVG-20010904/DTD/svg10.dtd">
<svg version="1.0" xmlns="http://www.w3.org/2000/svg"
 width="512.000000pt" height="512.000000pt" viewBox="0 0 512.000000 512.000000"
 preserveAspectRatio="xMidYMid meet">
<metadata>
Created by potrace 1.14, written by Peter Selinger 2001-2017
</metadata>
<g transform="translate(0.000000,512.000000) scale(0.100000,-0.100000)"
fill="#000000" stroke="none">
<path d="M2805 4541 c13 -5 -8 -10 -60 -13 -96 -7 -175 -35 -270 -95 -132 -84
-183 -149 -246 -312 -65 -172 -81 -244 -84 -396 -1 -77 -1 -117 1 -90 2 28 7
75 11 105 l7 55 7 -78 c4 -43 12 -84 18 -90 6 -6 11 -21 11 -33 0 -13 5 -26
11 -30 8 -4 10 -32 6 -83 -3 -42 -3 -66 0 -54 6 29 49 37 162 31 68 -4 98 -12
144 -34 l58 -29 -6 -40 c-4 -22 -9 -48 -12 -59 -3 -11 -1 -16 5 -12 5 3 15 28
22 56 10 42 16 50 34 50 20 0 24 -7 32 -67 11 -79 30 -98 115 -113 79 -15 246
-17 259 -4 6 6 15 38 21 72 11 61 12 63 76 107 35 25 66 45 68 45 3 0 5 -19 6
-42 1 -58 10 -75 36 -73 13 1 25 4 28 6 2 3 11 56 20 119 14 108 16 115 53
159 34 40 45 46 82 49 23 2 47 -1 51 -5 5 -5 13 -30 18 -57 8 -44 6 -52 -28
-114 -47 -86 -128 -172 -163 -172 -29 0 -38 -17 -64 -120 -20 -82 -74 -158
-187 -267 -94 -90 -154 -126 -269 -158 l-77 -22 -58 28 c-32 15 -76 45 -97 66
-56 56 -133 177 -151 236 -8 28 -29 87 -46 130 -16 44 -28 81 -26 83 2 2 19
-1 38 -6 18 -6 65 -9 104 -9 l70 1 -100 13 c-112 15 -168 29 -183 48 -6 6 -15
28 -20 47 -6 19 -11 27 -11 17 -2 -36 26 -84 53 -91 15 -4 26 -13 26 -24 0 -9
12 -44 26 -77 14 -33 37 -90 50 -126 25 -69 69 -155 85 -164 28 -18 -10 -22
-188 -21 -134 1 -206 -3 -223 -11 -22 -10 -16 -12 49 -12 41 -1 72 -3 70 -6
-3 -2 -43 -9 -89 -14 -47 -6 -96 -14 -110 -17 -34 -9 -17 8 23 24 31 12 30 12
-20 8 -57 -5 -145 -39 -165 -64 -11 -14 -10 -15 7 -8 70 29 119 45 123 41 3
-2 -7 -10 -22 -16 -14 -7 -26 -16 -26 -20 0 -11 28 -19 32 -8 2 5 21 11 43 14
22 3 87 12 145 20 58 8 113 12 123 9 15 -5 22 5 18 29 0 4 27 6 61 5 36 -1 49
-3 30 -5 -43 -6 -37 -27 9 -31 19 -2 38 -7 44 -11 13 -10 58 2 63 17 2 8 -9
12 -34 12 -20 0 -35 3 -31 6 10 10 69 15 91 8 19 -6 19 -7 -4 -26 -22 -18 -25
-29 -27 -97 -1 -42 -6 -154 -10 -249 -5 -98 -4 -172 1 -172 5 0 6 -17 3 -37
-5 -28 -4 -34 4 -23 9 12 10 10 6 -8 -3 -12 -1 -20 3 -17 5 3 12 0 16 -6 8
-13 -31 -11 -283 13 -108 10 -123 13 -123 30 0 10 6 18 14 18 7 0 19 7 27 16
18 22 -8 38 -28 18 -8 -8 -20 -14 -27 -14 -9 0 -12 -9 -8 -27 l5 -26 -79 7
c-43 3 -155 13 -249 21 -93 8 -181 15 -194 15 l-25 0 28 29 c16 16 33 28 40
25 6 -2 18 20 28 51 27 85 114 275 126 275 4 0 8 9 9 21 1 11 14 36 28 55 19
25 22 34 11 34 -29 0 -66 -69 -151 -281 -36 -90 -51 -115 -95 -157 -44 -43
-57 -50 -84 -47 -17 3 -116 9 -221 15 -104 6 -253 15 -330 20 -426 30 -587 40
-648 40 -104 0 -101 52 -27 -605 16 -143 37 -330 45 -415 35 -348 53 -480 66
-480 19 0 0 234 -66 795 -38 331 -54 473 -61 573 l-7 92 44 0 c24 0 109 -5
189 -10 80 -5 327 -21 550 -35 502 -31 606 -39 1000 -75 669 -62 920 -79 920
-62 0 18 -9 20 -180 37 -90 9 -165 17 -167 18 -5 6 -22 145 -25 208 l-4 66 35
-46 c83 -112 156 -164 268 -190 48 -12 55 -11 103 13 103 52 198 136 289 256
l33 45 -7 -100 c-3 -55 -10 -101 -15 -103 -5 -2 -6 -17 -3 -34 4 -21 3 -29 -5
-25 -6 5 -8 0 -5 -12 3 -10 0 -22 -6 -25 -5 -4 -7 -14 -4 -23 4 -10 2 -14 -4
-10 -7 5 -9 -1 -5 -15 3 -14 1 -19 -6 -14 -8 5 -10 1 -5 -10 4 -11 2 -15 -4
-11 -6 4 -8 -3 -5 -20 3 -18 1 -24 -6 -19 -8 5 -10 2 -6 -8 3 -9 1 -16 -5 -16
-6 0 -8 -7 -5 -15 4 -8 1 -15 -5 -15 -6 0 -11 -8 -11 -18 0 -10 -3 -22 -7 -26
-5 -4 -8 -11 -8 -14 -2 -20 -18 -52 -26 -52 -6 0 -8 -4 -4 -9 3 -5 -2 -16 -11
-25 -8 -9 -13 -20 -9 -25 3 -6 -7 -17 -23 -25 -17 -9 -41 -29 -55 -45 -32 -39
-34 -33 -42 121 -8 140 -27 205 -49 169 -5 -8 17 -301 44 -571 15 -156 47
-518 65 -740 9 -107 20 -231 26 -275 10 -76 10 -80 -11 -97 -25 -20 -81 -25
-77 -6 1 7 -25 16 -68 24 -119 22 -647 90 -1145 149 -494 58 -877 106 -1040
130 -52 8 -151 21 -220 30 -69 9 -132 18 -141 21 -19 5 -118 -92 -132 -129
-11 -28 1 -151 16 -171 9 -12 71 -23 247 -45 129 -17 298 -39 375 -50 77 -11
235 -30 350 -41 116 -11 273 -27 350 -35 77 -8 214 -22 305 -30 187 -17 419
-39 561 -54 103 -11 505 -41 552 -41 16 0 26 4 23 9 -3 5 2 15 11 22 9 8 38
40 64 72 27 31 79 84 116 117 86 77 388 394 410 431 l16 27 336 4 c314 4 341
6 406 27 39 12 90 26 115 31 25 4 71 18 102 30 77 29 82 45 76 254 -5 166 -6
168 -84 501 -14 61 -44 171 -66 245 -22 74 -51 173 -64 220 -35 120 -91 256
-133 320 -19 30 -78 98 -131 152 l-95 96 -95 21 c-233 51 -517 95 -616 95
-124 1 -137 9 -153 98 -9 54 -8 65 8 92 16 26 28 61 67 198 3 9 11 15 18 12
18 -7 109 67 144 118 62 91 75 126 68 191 -5 43 -3 64 7 80 8 12 21 51 30 86
9 36 21 67 25 70 5 3 15 24 22 46 11 34 14 37 21 20 14 -36 9 87 -6 150 -30
128 -144 290 -267 381 -32 23 -90 54 -130 69 -40 15 -81 31 -90 36 -24 12
-128 11 -166 -2 -26 -9 -41 -7 -87 10 -31 12 -61 21 -68 20 -7 0 -3 -4 8 -8z
m314 -62 c25 -9 29 -14 20 -25 -6 -7 -7 -19 -3 -25 5 -9 2 -10 -11 -6 -20 8
-89 25 -125 30 -14 3 -4 5 22 6 48 1 72 16 41 24 -15 4 -14 5 3 6 12 0 35 -4
53 -10z m-164 -39 c-27 -12 -43 -12 -25 0 8 5 22 9 30 9 10 0 8 -3 -5 -9z
m355 -44 c11 -14 9 -16 -9 -16 -12 0 -20 -4 -17 -9 4 -5 -4 -7 -16 -3 -23 6
-20 -5 10 -41 8 -9 13 -19 11 -21 -4 -5 -64 48 -89 78 -14 18 -13 18 20 11 19
-4 32 -4 28 0 -4 4 -1 13 5 20 13 14 35 6 57 -19z m-128 -100 c11 -15 10 -28
-1 -21 -5 3 -15 -1 -23 -8 -7 -7 -20 -12 -28 -12 -21 1 -30 -16 -23 -45 4 -17
-4 -11 -26 23 -36 55 -40 72 -13 58 11 -6 24 -6 33 0 7 5 10 9 4 10 -5 0 1 4
15 8 28 8 51 3 62 -13z m118 -116 c0 -8 3 -26 7 -40 6 -24 6 -24 -11 -7 -25
24 -28 22 -21 -15 5 -29 2 -26 -24 21 -35 61 -37 69 -17 52 11 -9 15 -8 20 5
3 9 3 21 -1 27 -3 6 6 2 20 -9 15 -10 27 -26 27 -34z m-699 -320 c4 -3 4 -11
0 -19 -6 -10 -11 -9 -24 3 -11 12 -17 13 -20 3 -3 -7 -6 -5 -6 6 -1 9 4 17 9
17 6 0 10 8 10 18 1 15 2 14 12 -3 6 -11 15 -22 19 -25z m-111 -12 c0 -11 -9
-22 -20 -25 -11 -3 -20 -12 -20 -21 0 -8 -2 -13 -5 -10 -3 3 -3 23 1 45 5 33
10 40 25 36 11 -3 19 -14 19 -25z m282 -12 c4 -6 8 -18 8 -26 0 -13 -1 -13
-10 0 -9 13 -13 11 -30 -10 l-20 -25 0 30 c0 20 -3 26 -9 17 -7 -11 -10 -10
-15 3 -3 9 -6 20 -6 24 0 11 74 0 82 -13z m-224 -273 c7 -13 21 -27 32 -33 16
-9 19 -8 14 7 -3 10 5 0 20 -22 25 -40 25 -40 26 -12 0 16 4 26 9 23 5 -3 9 4
9 17 0 32 21 105 32 112 6 4 10 -14 10 -44 0 -35 4 -51 13 -51 17 0 43 21 50
40 3 8 6 2 6 -13 1 -37 21 -31 43 14 18 34 18 34 18 7 0 -40 13 -35 38 15 l23
42 -6 -42 c-5 -41 -4 -43 20 -43 19 0 26 7 34 33 9 31 9 31 10 5 1 -18 7 -28
16 -28 10 0 15 10 16 28 0 24 1 24 8 7 7 -16 10 -10 17 30 l9 50 5 -55 c5 -52
6 -55 30 -52 14 2 35 13 47 24 43 40 93 -10 93 -95 l0 -43 -72 -41 -73 -41
-55 14 c-41 11 -87 14 -180 10 -192 -9 -204 -8 -272 24 -67 31 -145 50 -209
50 l-39 0 1 50 c1 28 5 50 9 50 4 0 47 -11 95 -25 88 -26 129 -29 87 -6 -16 8
-22 20 -21 44 l0 32 16 -32 c9 -18 20 -33 25 -33 4 0 9 28 9 63 l1 62 12 -60
c7 -33 18 -70 24 -82z m-208 105 c0 -20 32 -48 55 -48 13 0 26 -7 29 -16 7
-17 5 -17 -86 7 -35 9 -36 10 -25 39 11 30 27 40 27 18z m-76 -135 c5 -11 1
-22 -10 -30 -22 -16 -23 -14 -17 20 6 31 18 35 27 10z m714 -144 l64 -11 -6
-32 c-3 -17 -8 -55 -12 -84 l-7 -53 -81 6 c-266 21 -266 22 -266 112 0 56 -1
55 70 66 54 9 176 6 238 -4z m251 -587 c16 -32 21 -59 21 -122 0 -79 -1 -83
-42 -143 -85 -126 -104 -145 -158 -152 -28 -4 -53 -12 -56 -17 -5 -7 6 -9 32
-4 l39 6 -34 -30 c-19 -16 -64 -45 -100 -63 -62 -32 -68 -33 -107 -22 -55 17
-115 49 -154 82 l-33 27 29 13 29 12 -43 1 c-42 0 -43 1 -90 73 l-47 72 2 115
c2 63 5 125 8 138 l6 23 32 -25 c46 -36 117 -66 154 -66 51 0 183 46 240 85
29 19 89 73 135 119 l82 84 17 -82 c9 -45 26 -101 38 -124z m105 57 c77 1 369
-44 631 -96 l90 -18 104 -107 c57 -59 112 -121 122 -138 71 -116 144 -358 156
-514 8 -104 21 -142 23 -66 l1 55 15 -40 c8 -22 26 -83 39 -136 14 -53 28
-105 31 -114 6 -14 3 -16 -13 -11 -11 4 -31 3 -43 -2 -21 -8 -19 -10 20 -15
39 -5 59 -19 60 -40 0 -4 -10 -2 -22 4 -34 18 -189 5 -292 -26 -102 -30 -195
-73 -249 -117 -36 -28 -40 -29 -55 -14 -9 8 -14 17 -11 19 2 2 17 13 33 25 17
13 23 22 14 22 -9 0 -27 -9 -41 -20 l-26 -21 -31 43 c-18 24 -52 84 -76 133
-43 86 -45 93 -35 135 14 60 14 83 0 74 -8 -5 -10 4 -7 29 2 20 1 34 -3 32
-10 -7 -19 106 -19 241 0 71 -4 125 -10 129 -12 7 -12 -3 -14 -232 -1 -95 2
-165 6 -155 5 11 7 5 6 -18 -1 -19 2 -41 6 -48 5 -8 5 -41 2 -75 -6 -57 -4
-70 34 -162 58 -141 68 -172 78 -237 l9 -58 -36 -5 c-20 -3 -108 -19 -196 -36
-88 -17 -205 -36 -260 -41 -82 -7 -244 -38 -330 -63 -20 -6 -21 1 -34 157 -27
319 -27 320 20 430 32 77 54 111 100 160 137 144 198 358 187 649 -3 71 -2
147 3 167 7 33 5 40 -23 69 -18 18 -40 35 -50 39 -10 3 -18 10 -18 15 0 6 5 7
10 4 6 -4 48 -6 94 -6z m-44 -427 c0 -149 -30 -305 -55 -295 -8 3 -16 -7 -20
-26 -4 -17 -11 -33 -16 -37 -11 -6 -5 25 17 96 32 106 56 229 56 297 0 40 4
70 9 67 5 -3 9 -49 9 -102z m-780 -109 c-1 -32 -4 -43 -9 -33 -8 14 -4 80 5
80 2 0 4 -21 4 -47z m2029 -726 c27 -13 40 -52 66 -197 15 -84 19 -287 6 -345
-9 -44 -88 -80 -213 -96 -54 -7 -98 -17 -98 -21 0 -4 8 -9 18 -9 9 -1 -14 -7
-53 -14 -75 -14 -640 -14 -810 -1 l-90 8 -45 -41 c-50 -47 -43 -45 -172 -45
-94 -1 -98 0 -98 21 0 12 -5 79 -11 149 -7 81 -7 130 -1 136 5 5 61 23 123 40
85 22 145 31 234 35 72 3 128 10 141 18 11 7 83 23 160 34 76 12 153 24 169
27 22 4 26 3 15 -5 -8 -5 -11 -13 -7 -17 4 -4 16 1 27 11 11 10 61 40 112 66
86 45 101 67 23 35 -31 -13 -35 -13 -51 5 -11 13 -13 19 -4 19 6 0 10 6 7 14
-7 17 60 66 137 100 154 68 356 104 415 73z m-1145 -769 c-32 -35 -117 -124
-190 -198 l-131 -136 -10 151 c-6 82 -9 153 -6 158 2 4 49 7 104 6 106 -1 121
4 173 56 20 20 35 25 72 25 l47 0 -59 -62z m165 46 c2 -2 -23 -31 -55 -66
-164 -174 -148 -161 -183 -153 l-31 7 107 113 c94 99 111 113 133 108 14 -3
27 -7 29 -9z"/>
<path d="M2822 3517 c-29 -7 -52 -16 -50 -22 2 -5 6 -9 10 -8 3 1 48 7 100 14
188 22 203 27 93 27 -55 0 -124 -5 -153 -11z"/>
<path d="M3115 2837 c-5 -12 5 -43 30 -93 20 -42 39 -74 41 -71 3 2 -9 37 -25
78 -16 41 -31 81 -34 89 -4 12 -6 12 -12 -3z"/>
<path d="M2547 2662 c-9 -21 -17 -45 -17 -53 0 -17 35 36 45 69 11 37 -10 25
-28 -16z"/>
<path d="M3511 2786 c-17 -9 -36 -10 -73 -4 -27 5 -59 8 -71 6 -39 -7 51 -27
148 -33 84 -5 87 -4 50 8 l-40 13 30 11 c29 11 29 11 5 12 -14 0 -36 -6 -49
-13z"/>
<path d="M3910 2740 c-12 -8 -9 -10 12 -10 15 0 30 5 33 10 8 13 -25 13 -45 0z"/>
<path d="M3700 2735 c0 -4 34 -14 104 -29 25 -6 27 -9 14 -24 -8 -9 -18 -23
-23 -30 -10 -19 21 -2 52 27 12 12 34 21 49 21 47 0 20 10 -67 25 -86 15 -129
19 -129 10z"/>
<path d="M3436 2714 c-9 -9 -14 -19 -11 -22 3 -3 13 2 22 11 9 9 14 19 11 22
-3 3 -13 -2 -22 -11z"/>
<path d="M3691 2553 c-16 -63 -20 -290 -5 -290 7 0 13 52 18 154 4 84 9 160
12 168 4 8 2 15 -3 15 -5 0 -15 -21 -22 -47z"/>
<path d="M3873 2162 c-55 -81 -114 -212 -96 -212 4 0 38 59 75 130 69 134 77
165 21 82z"/>
<path d="M3623 1950 c1 -11 5 -20 9 -20 4 0 8 -6 8 -14 0 -8 3 -16 8 -18 4 -1
22 -22 40 -45 19 -24 38 -43 44 -43 6 0 4 8 -5 18 -10 10 -17 22 -17 25 0 12
-72 117 -81 117 -4 0 -7 -9 -6 -20z"/>
<path d="M3493 1860 c-34 -14 -28 -22 10 -15 50 10 78 -18 85 -84 6 -64 22
-49 22 22 0 74 -47 105 -117 77z"/>
<path d="M3427 1752 c-10 -10 -17 -28 -17 -40 0 -20 5 -22 51 -22 l50 0 -3
-37 c-2 -20 -9 -39 -17 -41 -8 -3 -11 0 -7 6 4 6 -2 8 -14 5 -15 -4 -20 0 -20
16 0 23 25 29 33 9 2 -7 8 -10 12 -6 12 12 -5 28 -31 28 -20 0 -24 -5 -24 -30
0 -27 9 -35 33 -31 5 1 6 -3 2 -9 -11 -18 -42 8 -50 42 l-8 33 -4 -28 c-3 -16
1 -35 7 -42 38 -46 100 -11 100 57 0 32 -4 39 -25 44 -14 3 -36 3 -50 0 -29
-7 -34 13 -9 38 22 22 49 20 67 -6 12 -17 16 -19 16 -7 2 39 -63 54 -92 21z"/>
<path d="M3338 1637 c-5 -10 -8 -42 -8 -71 0 -50 2 -54 34 -71 31 -17 37 -17
72 -4 22 8 48 29 61 48 36 53 27 59 -17 14 -42 -44 -91 -63 -115 -43 -9 7 -15
36 -17 78 -2 42 -6 60 -10 49z"/>
<path d="M3693 1585 c0 -27 2 -38 4 -22 2 15 2 37 0 50 -2 12 -4 0 -4 -28z"/>
<path d="M3691 1384 c0 -11 3 -14 6 -6 3 7 2 16 -1 19 -3 4 -6 -2 -5 -13z"/>
<path d="M4200 1426 c0 -19 -3 -43 -6 -53 -5 -14 -4 -15 5 -7 17 16 27 94 12
94 -6 0 -11 -15 -11 -34z"/>
<path d="M2612 3273 c-8 -25 -8 -41 -1 -52 9 -14 10 -14 5 1 -3 10 0 31 6 48
5 17 8 33 6 36 -3 2 -10 -13 -16 -33z"/>
<path d="M2623 2993 c31 -2 83 -2 115 0 31 2 5 3 -58 3 -63 0 -89 -1 -57 -3z"/>
<path d="M2198 2743 c7 -3 16 -2 19 1 4 3 -2 6 -13 5 -11 0 -14 -3 -6 -6z"/>
<path d="M2230 2641 c-14 -33 -28 -61 -33 -61 -4 0 -7 -6 -5 -12 1 -7 -9 -35
-21 -63 -13 -27 -24 -52 -23 -55 0 -3 -4 -11 -10 -18 -6 -7 -8 -15 -6 -18 11
-10 77 112 103 189 32 96 28 123 -5 38z"/>
<path d="M1725 2617 c-4 -10 -5 -48 -2 -84 4 -48 10 -71 26 -86 l21 -21 -11
34 c-6 19 -14 67 -18 105 -5 48 -10 64 -16 52z"/>
<path d="M2010 2423 c0 -42 18 -118 26 -110 3 3 2 37 -2 76 -7 74 -24 98 -24
34z"/>
<path d="M1825 2340 c4 -14 12 -27 16 -28 5 -2 6 -9 2 -15 -3 -7 -3 -9 2 -5 4
4 14 1 22 -7 32 -33 34 -12 2 23 -18 20 -38 42 -43 47 -5 6 -5 -1 -1 -15z"/>
</g>
</svg>
