<?xml version="1.0" standalone="no"?>
<!DOCTYPE svg PUBLIC "-//W3C//DTD SVG 20010904//EN"
 "http://www.w3.org/TR/2001/REC-SVG-20010904/DTD/svg10.dtd">
<svg version="1.0" xmlns="http://www.w3.org/2000/svg"
 width="500.000000pt" height="500.000000pt" viewBox="0 0 500.000000 500.000000"
 preserveAspectRatio="xMidYMid meet">
<metadata>
Created by potrace 1.14, written by Peter Selinger 2001-2017
</metadata>
<g transform="translate(0.000000,500.000000) scale(0.100000,-0.100000)"
fill="#000000" stroke="none">
<path d="M2726 4432 c-3 -3 -25 -7 -49 -9 -44 -3 -62 -6 -87 -16 -8 -3 -36
-13 -62 -22 -114 -42 -236 -138 -287 -229 -38 -67 -98 -222 -122 -316 -23 -89
-36 -227 -28 -290 5 -38 6 -32 8 35 4 119 16 147 23 52 3 -43 10 -83 17 -90 6
-6 11 -21 11 -32 0 -12 3 -25 7 -29 4 -4 9 -19 11 -34 5 -36 12 -41 19 -14 3
12 9 22 14 22 12 0 -1 -32 -23 -53 -15 -15 -18 -29 -14 -71 6 -67 20 -97 54
-117 16 -9 32 -31 40 -55 8 -21 22 -57 31 -79 10 -22 26 -64 36 -93 18 -56 60
-138 76 -147 5 -4 9 -13 9 -22 0 -14 -13 -15 -107 -8 -60 4 -124 7 -143 6
-129 -5 -310 -43 -368 -78 -26 -15 -49 -28 -52 -28 -32 -3 -76 -83 -151 -270
-37 -93 -51 -117 -94 -158 l-50 -48 -80 6 c-88 5 -191 12 -335 20 -52 3 -124
8 -160 11 -78 6 -165 12 -280 19 -47 2 -119 7 -160 10 -190 14 -250 14 -259
-4 -9 -16 -7 -147 4 -206 5 -29 8 -57 20 -180 3 -33 13 -116 21 -185 9 -69 17
-143 19 -165 2 -22 6 -60 9 -85 3 -25 8 -72 11 -105 3 -33 7 -76 9 -95 3 -19
7 -60 11 -90 5 -51 19 -176 31 -279 2 -24 7 -47 9 -52 3 -4 3 -26 -1 -48 -5
-30 -20 -54 -61 -97 l-54 -58 2 -73 c2 -92 14 -109 81 -118 29 -4 60 -8 68
-10 8 -1 42 -5 75 -9 33 -4 74 -9 90 -12 17 -2 82 -10 145 -19 63 -8 126 -17
140 -19 14 -3 48 -7 75 -11 28 -3 64 -8 80 -11 17 -2 53 -6 80 -8 28 -3 70 -7
95 -10 55 -6 158 -16 225 -21 27 -2 72 -7 99 -11 28 -3 73 -8 101 -10 27 -2
66 -5 85 -8 37 -5 159 -16 225 -21 47 -3 165 -14 215 -20 19 -2 82 -9 140 -15
58 -6 121 -13 140 -15 19 -2 73 -7 120 -10 47 -3 112 -8 145 -11 66 -6 229
-16 259 -15 10 0 37 21 60 47 23 25 141 147 262 269 122 123 235 241 250 262
16 21 35 42 41 46 7 4 13 15 13 22 0 13 41 15 268 16 315 1 374 4 450 25 31 9
95 26 142 39 120 33 138 42 151 83 12 37 15 224 4 295 -14 92 -104 490 -135
592 -5 17 -20 73 -35 125 -57 206 -117 361 -173 442 -16 24 -70 85 -118 135
l-89 93 -95 21 c-52 11 -104 22 -115 24 -45 9 -162 28 -185 31 -14 1 -65 11
-115 20 -49 10 -130 18 -180 19 -49 1 -98 2 -107 3 -24 3 -48 42 -52 88 -3 21
-7 46 -11 55 -3 9 0 23 8 31 14 13 62 149 69 192 2 11 16 23 33 29 48 15 87
50 135 118 25 35 44 65 42 67 -1 1 4 16 13 32 11 21 13 44 9 83 -4 38 -2 62 8
83 8 16 20 50 27 76 11 46 46 117 65 130 13 9 8 104 -9 163 -48 169 -204 349
-355 413 -134 57 -180 64 -270 46 -53 -11 -53 -11 -81 2 -32 16 -75 24 -83 16z"/>
</g>
</svg>
