<?xml version="1.0" standalone="no"?>
<!DOCTYPE svg PUBLIC "-//W3C//DTD SVG 20010904//EN"
 "http://www.w3.org/TR/2001/REC-SVG-20010904/DTD/svg10.dtd">
<svg version="1.0" xmlns="http://www.w3.org/2000/svg"
 width="2048.000000pt" height="2048.000000pt" viewBox="0 0 2048.000000 2048.000000"
 preserveAspectRatio="xMidYMid meet">
<metadata>
Created by potrace 1.14, written by Peter Selinger 2001-2017
</metadata>
<g transform="translate(0.000000,2048.000000) scale(0.100000,-0.100000)"
fill="#000000" stroke="none">
<path d="M11200 18190 c-14 -4 -33 -6 -42 -4 -10 1 -15 -3 -11 -12 3 -7 8 -13
11 -12 17 5 114 -14 146 -27 46 -19 46 -26 2 -14 -52 14 -348 4 -486 -17 -19
-3 -46 -7 -60 -9 -63 -8 -292 -74 -390 -112 -8 -4 -17 -7 -20 -8 -34 -12 -171
-74 -190 -86 -8 -5 -22 -12 -30 -16 -8 -3 -27 -15 -42 -25 -16 -11 -28 -16
-28 -12 0 4 -8 0 -17 -8 -10 -8 -45 -30 -78 -48 -33 -19 -61 -37 -63 -42 -2
-4 -7 -8 -11 -8 -12 0 -175 -111 -179 -121 -2 -5 -8 -9 -13 -9 -9 0 -88 -56
-154 -109 -85 -70 -236 -236 -296 -326 -36 -55 -69 -107 -72 -115 -4 -8 -16
-28 -26 -45 -21 -32 -83 -154 -124 -245 -37 -82 -64 -151 -112 -290 -54 -158
-69 -192 -80 -183 -4 5 -5 3 -1 -4 4 -7 -1 -29 -10 -50 -9 -21 -17 -42 -18
-48 -1 -5 -19 -62 -40 -125 -21 -63 -40 -122 -41 -130 -2 -8 -4 -16 -5 -17 -3
-4 -5 -12 -14 -55 -5 -21 -11 -38 -15 -38 -4 0 -7 -10 -6 -22 1 -13 -2 -31 -7
-41 -5 -10 -11 -26 -13 -35 -2 -9 -8 -37 -15 -62 -6 -25 -12 -54 -14 -65 -2
-11 -4 -20 -6 -20 -1 0 -3 -9 -5 -20 -4 -27 -16 -92 -21 -119 -2 -11 -7 -37
-10 -56 -3 -19 -8 -48 -11 -65 -6 -37 -11 -79 -18 -170 -4 -38 -8 -92 -11
-120 -2 -27 -6 -144 -8 -260 -3 -153 -1 -212 7 -217 8 -5 7 -8 -3 -8 -13 0
-13 -2 -1 -9 8 -5 16 -27 17 -48 2 -21 5 -56 8 -78 17 -122 22 -103 22 83 1
160 10 363 20 427 2 17 7 48 10 70 8 66 9 69 18 84 7 10 6 12 -4 6 -10 -6 -11
-4 -4 6 4 8 10 23 11 34 2 11 8 43 13 71 6 28 13 64 16 79 3 16 7 31 9 33 2 2
3 -112 3 -254 0 -233 2 -291 17 -374 3 -14 7 -38 10 -55 3 -16 8 -41 11 -55 4
-14 8 -38 9 -54 3 -50 23 -42 23 9 0 26 3 49 6 53 3 3 6 -9 6 -27 0 -18 4 -40
9 -50 6 -10 11 -53 12 -97 2 -61 7 -85 22 -106 11 -15 24 -25 28 -22 4 2 11
-17 15 -43 5 -27 8 -50 9 -53 0 -3 6 -15 12 -26 7 -12 10 -39 7 -60 -4 -38 -7
-92 -5 -126 1 -10 6 -18 12 -18 5 0 7 5 4 10 -3 6 -1 10 4 10 6 0 11 6 11 13
0 6 6 23 13 37 7 14 24 66 37 117 13 51 29 94 36 97 18 7 36 -19 39 -55 1 -16
10 -35 19 -42 19 -14 28 -67 15 -88 -5 -8 -9 -11 -9 -7 0 10 -76 -30 -91 -48
-6 -8 -18 -14 -25 -14 -8 0 -22 -9 -31 -20 -10 -11 -24 -20 -32 -20 -8 0 -12
-3 -9 -6 4 -3 -4 -21 -16 -39 -18 -26 -22 -44 -20 -87 4 -65 11 -117 24 -183
15 -76 18 -87 29 -122 5 -18 8 -33 6 -33 -1 0 10 -33 25 -72 32 -84 52 -138
56 -154 2 -12 144 -67 171 -67 18 0 41 -33 45 -67 2 -14 6 -29 10 -35 3 -5 9
-26 13 -45 4 -19 12 -41 17 -47 6 -7 8 -13 4 -13 -6 0 29 -97 60 -168 65 -149
81 -185 88 -209 4 -12 23 -54 42 -94 35 -73 43 -94 83 -224 12 -38 25 -77 28
-85 3 -8 7 -19 8 -25 30 -120 242 -492 348 -610 17 -19 17 -20 0 -26 -10 -3
-30 -3 -44 1 -14 4 -100 8 -190 7 -90 0 -180 3 -199 6 -54 9 -208 28 -217 26
-4 -1 -10 0 -13 1 -29 11 -550 11 -550 0 0 -3 -21 -6 -47 -6 -44 -1 -141 -11
-181 -19 -9 -1 -42 -6 -72 -10 -30 -4 -89 -16 -130 -26 -41 -10 -86 -20 -100
-23 -14 -3 -43 -10 -65 -15 -22 -5 -74 -12 -115 -16 -41 -3 -104 -12 -140 -20
-36 -8 -118 -26 -183 -39 -82 -17 -128 -32 -150 -48 -18 -14 -57 -36 -87 -50
-48 -22 -200 -117 -239 -150 -8 -6 -30 -11 -50 -10 -30 2 -45 -5 -88 -43 -44
-39 -126 -150 -132 -180 -1 -5 -8 -17 -15 -25 -23 -25 -126 -247 -248 -530
-10 -25 -23 -54 -28 -65 -8 -19 -32 -90 -36 -107 -1 -5 -3 -10 -4 -13 -1 -3
-4 -9 -5 -15 -1 -5 -4 -12 -5 -15 -1 -3 -3 -8 -5 -12 -1 -5 -12 -30 -25 -58
-13 -27 -23 -53 -22 -57 1 -5 -2 -8 -8 -8 -5 0 -10 -5 -10 -10 0 -6 -8 -27
-17 -48 -9 -20 -17 -41 -18 -47 -1 -5 -8 -26 -17 -46 -9 -20 -23 -60 -32 -90
-32 -111 -99 -203 -280 -387 -177 -179 -208 -204 -246 -197 -13 2 -73 7 -134
10 -61 4 -131 8 -156 10 -25 2 -94 6 -155 10 -60 3 -128 7 -150 10 -22 2 -98
7 -170 10 -71 3 -148 8 -170 10 -22 2 -94 7 -160 10 -66 3 -142 7 -170 10 -27
2 -108 7 -180 10 -71 3 -152 8 -180 10 -27 2 -99 7 -160 10 -60 3 -135 8 -165
10 -30 2 -98 7 -150 10 -52 3 -117 8 -145 10 -27 2 -95 7 -150 10 -55 4 -118
8 -140 10 -22 2 -89 7 -150 10 -60 3 -130 8 -155 10 -62 6 -160 14 -255 20
-173 11 -232 15 -282 21 -28 3 -87 7 -131 9 -44 2 -154 9 -243 14 -249 17
-306 20 -404 26 -49 3 -121 7 -160 10 -38 2 -113 7 -165 10 -52 3 -120 8 -150
10 -30 2 -111 7 -180 10 -69 3 -164 8 -212 11 -48 3 -97 3 -108 -1 -29 -9 -78
-86 -84 -131 -2 -22 -5 -41 -6 -44 -8 -24 3 -294 16 -405 3 -22 7 -62 9 -90 2
-27 5 -50 6 -50 2 0 5 -21 13 -109 4 -38 9 -83 11 -101 3 -17 7 -58 10 -91 3
-32 7 -69 9 -81 5 -24 16 -139 21 -219 2 -30 6 -57 8 -61 3 -5 8 -48 11 -98 4
-49 8 -101 11 -115 2 -14 7 -52 10 -85 10 -118 14 -161 19 -200 3 -22 8 -71
12 -110 3 -38 8 -83 11 -100 6 -42 11 -81 17 -145 3 -30 7 -66 10 -80 3 -14 7
-52 10 -85 3 -33 8 -71 11 -85 2 -14 7 -50 10 -80 5 -56 20 -178 30 -250 5
-39 6 -52 21 -170 3 -30 8 -71 9 -90 2 -19 6 -51 9 -70 3 -19 7 -61 10 -92 4
-32 8 -82 11 -110 3 -29 8 -78 10 -108 2 -30 5 -55 5 -55 3 0 8 -44 14 -125 3
-41 8 -86 10 -100 3 -14 8 -59 11 -100 4 -41 9 -93 11 -115 2 -22 6 -65 8 -95
3 -30 7 -71 10 -90 3 -19 8 -69 11 -110 2 -41 5 -75 6 -75 2 0 5 -26 13 -110
4 -38 8 -81 11 -95 2 -14 7 -59 10 -100 4 -41 8 -86 10 -100 1 -14 6 -50 9
-80 4 -30 9 -72 11 -92 3 -21 7 -55 10 -75 2 -21 7 -67 10 -103 3 -36 8 -72
10 -80 2 -8 7 -44 10 -80 8 -83 14 -129 20 -160 2 -14 7 -54 10 -90 2 -36 7
-76 10 -90 4 -23 8 -56 20 -160 2 -19 6 -44 9 -56 2 -12 7 -45 11 -74 16 -124
38 -176 71 -163 12 4 14 -18 14 -128 0 -74 -4 -139 -8 -145 -4 -6 -26 -12 -50
-12 -47 -2 -76 -23 -85 -62 -7 -29 -50 -76 -127 -140 -30 -25 -61 -54 -70 -64
-8 -10 -23 -26 -32 -35 -10 -8 -18 -18 -18 -22 0 -7 -37 -53 -71 -89 -9 -10
-24 -22 -33 -27 -31 -17 -45 -115 -41 -293 2 -91 6 -178 9 -195 2 -16 7 -50
10 -75 14 -117 36 -201 55 -208 9 -3 25 -14 35 -24 11 -10 25 -18 30 -19 6 0
20 -2 31 -4 11 -2 83 -13 160 -24 77 -12 151 -24 165 -26 28 -4 86 -12 140
-19 19 -3 51 -7 70 -10 19 -3 60 -8 91 -11 31 -3 67 -8 80 -11 13 -2 44 -7 69
-9 25 -3 59 -7 75 -10 17 -2 58 -7 92 -10 34 -3 70 -8 81 -10 23 -4 98 -13
167 -20 28 -3 68 -7 90 -10 86 -11 117 -15 158 -21 23 -3 62 -7 87 -9 25 -2
63 -6 85 -9 22 -4 54 -8 70 -11 17 -2 52 -7 80 -11 27 -3 59 -8 70 -9 11 -2
43 -6 70 -9 28 -4 61 -9 75 -11 14 -3 43 -7 65 -10 22 -3 51 -7 65 -10 14 -3
59 -10 100 -16 78 -11 101 -14 160 -24 66 -11 85 -14 170 -25 47 -6 96 -13
110 -15 70 -11 119 -17 152 -20 20 -2 54 -6 75 -9 21 -3 58 -8 83 -11 25 -3
61 -8 80 -10 19 -2 62 -7 95 -11 33 -3 76 -7 95 -9 19 -2 58 -6 85 -9 96 -9
170 -17 200 -21 17 -2 66 -7 110 -10 44 -3 94 -8 110 -10 45 -6 178 -20 295
-30 36 -3 83 -8 105 -10 22 -2 72 -7 110 -10 39 -3 89 -8 112 -10 65 -7 184
-17 228 -20 22 -1 56 -5 75 -8 19 -4 64 -9 100 -11 36 -3 108 -10 160 -16 52
-5 120 -12 150 -15 30 -3 69 -7 85 -10 17 -2 59 -7 95 -10 57 -5 104 -10 175
-20 11 -1 52 -6 90 -9 39 -4 86 -9 105 -11 44 -6 206 -21 315 -30 33 -2 71 -6
85 -9 14 -2 63 -7 110 -10 47 -4 103 -8 125 -11 22 -3 65 -7 95 -9 69 -5 203
-17 255 -22 22 -2 69 -6 105 -9 36 -2 83 -6 105 -9 22 -2 76 -7 120 -11 106
-8 221 -22 420 -50 42 -5 141 -13 265 -20 58 -4 121 -8 141 -11 20 -2 65 -6
100 -9 35 -2 84 -7 109 -10 25 -3 68 -7 95 -10 125 -12 163 -16 200 -20 90
-10 143 -16 190 -25 105 -19 237 -33 440 -45 55 -3 129 -8 165 -11 36 -3 88
-7 115 -9 134 -11 204 -16 250 -20 28 -3 88 -8 135 -11 47 -3 101 -7 120 -8
19 -2 82 -6 140 -10 58 -4 130 -9 160 -11 30 -3 98 -7 150 -9 52 -3 127 -8
165 -11 39 -2 104 -7 145 -10 41 -3 107 -8 145 -11 39 -3 102 -7 140 -10 39
-2 107 -7 153 -10 77 -5 84 -4 102 16 23 26 17 44 -11 35 -28 -9 -23 8 14 42
31 30 186 195 247 263 17 19 33 47 36 62 4 16 34 52 74 89 38 34 76 78 85 98
9 21 40 54 73 79 57 42 76 59 232 202 204 186 353 333 566 557 187 196 375
390 569 588 192 196 207 212 329 360 59 72 115 139 125 150 55 65 91 125 91
154 0 33 4 35 65 33 67 -3 122 -3 158 0 20 2 37 1 37 -2 0 -4 993 -4 1145 0
11 0 76 0 145 0 163 0 168 0 183 -1 22 0 520 11 662 15 77 3 176 12 220 21 44
9 96 18 115 21 19 3 43 7 52 10 10 3 30 7 45 10 23 4 81 18 164 38 51 13 164
51 238 80 83 33 104 38 236 51 33 4 78 11 100 15 50 11 248 76 291 96 17 7 40
15 50 17 22 5 104 44 154 75 50 30 77 95 105 247 28 147 21 881 -9 1120 -3 22
-8 60 -11 85 -3 25 -7 52 -9 60 -1 8 -6 38 -11 65 -8 54 -21 115 -55 265 -12
52 -26 115 -31 139 -5 25 -20 88 -34 140 -14 53 -27 112 -29 131 -3 19 -9 53
-15 75 -5 22 -14 74 -20 115 -14 108 -19 131 -56 265 -18 66 -49 190 -69 275
-45 189 -51 211 -70 280 -9 30 -17 66 -20 80 -10 60 -89 368 -103 400 -36 83
-148 438 -158 500 -3 19 -17 71 -30 115 -14 44 -27 89 -30 100 -2 11 -11 45
-19 75 -38 149 -58 219 -74 260 -9 25 -17 47 -18 50 0 3 -8 23 -18 45 -9 22
-21 58 -26 81 -30 133 -125 403 -203 574 -69 153 -90 201 -91 212 -1 4 -7 13
-13 20 -7 6 -13 18 -13 25 0 19 -72 159 -114 222 -20 29 -36 55 -36 56 0 2
-10 15 -23 29 -12 13 -32 44 -45 68 -12 25 -31 53 -43 64 -12 10 -35 39 -52
64 -17 25 -95 108 -172 185 -78 77 -168 174 -199 215 -32 41 -117 132 -189
203 l-132 128 -95 30 c-52 17 -106 34 -120 39 -43 15 -102 29 -175 40 -90 14
-93 15 -205 40 -52 11 -105 23 -117 25 -13 3 -33 7 -45 10 -13 3 -32 7 -43 9
-11 2 -40 9 -65 15 -25 5 -103 19 -175 30 -71 11 -139 22 -150 25 -11 2 -40 7
-65 10 -25 3 -81 13 -125 21 -44 9 -98 18 -120 21 -22 3 -67 12 -100 19 -58
14 -83 18 -190 30 -68 8 -155 23 -245 42 -41 8 -91 17 -110 20 -19 3 -64 12
-100 20 -36 8 -94 18 -130 23 -36 5 -83 14 -105 21 -40 12 -113 13 -525 6
-232 -4 -269 1 -341 44 -29 18 -65 38 -78 45 -27 14 -55 85 -65 160 -3 27 -10
74 -16 104 -6 30 -13 69 -15 85 -3 17 -8 44 -12 60 -3 17 -7 47 -7 68 -1 21
-8 42 -16 47 -11 7 -4 24 38 85 29 42 52 78 52 81 0 3 14 25 30 49 17 24 30
50 30 58 0 8 12 46 26 83 14 38 27 74 29 79 1 6 5 17 8 25 3 8 18 58 32 110
15 52 28 100 29 105 2 6 6 28 11 50 4 22 11 47 15 55 5 8 11 31 14 50 3 19 14
64 24 100 15 55 21 64 37 61 50 -10 104 -1 159 25 54 26 106 65 106 82 0 4 19
15 41 26 53 24 137 107 229 226 19 25 37 47 40 50 36 34 191 294 270 455 25
50 47 92 50 95 19 19 16 142 -5 275 -25 149 -25 185 -3 249 11 33 30 72 43 88
21 25 59 121 70 177 2 12 7 31 10 41 3 10 8 27 10 37 3 10 19 74 36 143 17 69
32 130 33 135 5 24 19 62 32 91 7 17 18 42 23 55 9 22 9 22 8 -8 -1 -18 -5
-33 -9 -33 -5 0 -8 -11 -8 -24 0 -14 -5 -28 -10 -31 -6 -4 -8 -11 -4 -16 10
-17 32 9 43 53 1 4 13 35 26 69 14 34 22 65 20 69 -3 5 -2 10 2 12 9 4 43 127
43 157 0 11 6 23 13 27 6 4 9 4 5 -1 -4 -4 -3 -14 3 -22 7 -7 14 -28 16 -46 6
-54 9 -66 16 -73 4 -4 7 -2 7 5 0 7 4 9 10 6 5 -3 12 6 16 21 8 32 8 180 0
249 -3 28 -7 88 -10 135 -2 47 -11 112 -19 145 -9 33 -18 71 -21 85 -5 23 -21
86 -31 120 -2 8 -10 40 -18 71 -7 31 -25 78 -39 105 -129 252 -170 329 -188
354 -11 15 -20 31 -20 34 0 3 -37 60 -82 127 -46 67 -87 128 -93 137 -5 9 -18
23 -27 30 -10 7 -18 17 -18 22 0 5 -10 20 -22 33 -13 13 -45 50 -73 82 -67 77
-187 197 -264 265 -35 30 -69 60 -75 65 -25 23 -164 124 -206 150 -25 15 -47
31 -50 34 -31 38 -444 226 -550 251 -30 7 -80 21 -110 32 -30 10 -80 21 -110
25 -74 7 -87 22 -16 19 47 -2 53 -1 39 9 -10 7 -37 15 -61 18 -23 2 -45 7 -49
10 -3 4 -14 2 -24 -3 -12 -7 -20 -7 -24 0 -4 6 -11 8 -16 5 -5 -4 -9 0 -9 7 0
9 -3 9 -10 -2 -8 -12 -10 -12 -10 -1 0 10 -3 11 -14 2 -9 -8 -16 -8 -20 -2 -4
6 -12 8 -19 6 -7 -2 -59 -6 -117 -9 -58 -2 -112 -7 -120 -10 -8 -2 -33 -7 -55
-10 -22 -3 -65 -13 -95 -22 -30 -9 -59 -17 -65 -19 -11 -2 -37 -11 -71 -25
-23 -9 -81 9 -186 58 -37 17 -77 33 -90 35 -13 1 -39 11 -59 21 -55 26 -131
43 -159 36z m3103 -2795 c-3 -9 -8 -14 -10 -11 -3 3 -2 9 2 15 9 16 15 13 8
-4z m-8346 -14021 c-3 -3 -12 -4 -19 -1 -8 3 -5 6 6 6 11 1 17 -2 13 -5z m130
-10 c-3 -3 -12 -4 -19 -1 -8 3 -5 6 6 6 11 1 17 -2 13 -5z m970 -100 c-3 -3
-12 -4 -19 -1 -8 3 -5 6 6 6 11 1 17 -2 13 -5z"/>
</g>
</svg>
